<svg width="153" height="33" viewBox="0 0 153 33" fill="none" xmlns="http://www.w3.org/2000/svg">
<rect x="3.75" y="4.125" width="15.75" height="15.75" rx="1.875" fill="#8256FF"/>
<mask id="path-2-inside-1_584_2373" fill="white">
<rect x="12.75" y="13.125" width="15.75" height="15.75" rx="1.875"/>
</mask>
<rect x="12.75" y="13.125" width="15.75" height="15.75" rx="1.875" stroke="#8256FF" stroke-width="4.5" mask="url(#path-2-inside-1_584_2373)"/>
<path d="M39.3574 27.204C39.2854 27.564 39.0694 27.876 38.7094 28.14C38.3734 28.38 37.8934 28.5 37.2694 28.5C36.7414 28.5 36.3214 28.356 36.0094 28.068C35.7214 27.78 35.5654 27.48 35.5414 27.168C35.6854 26.16 35.7574 24.648 35.7574 22.632C35.7574 21.432 35.6854 19.584 35.5414 17.088C35.3734 14.736 35.2894 12.648 35.2894 10.824C35.2894 9.84 35.3374 8.832 35.4334 7.8C35.4334 7.464 35.6254 7.104 36.0094 6.72C36.4174 6.336 36.9694 6.096 37.6654 6C39.9454 5.76 42.7414 5.64 46.0534 5.64H47.2054C48.0694 5.64 48.9094 5.796 49.7254 6.108C50.5654 6.42 50.9854 6.96 50.9854 7.728C50.9854 8.232 50.8654 8.628 50.6254 8.916C50.3854 9.204 49.9414 9.348 49.2934 9.348C48.9814 9.348 48.6214 9.324 48.2134 9.276C47.8054 9.228 47.5174 9.192 47.3494 9.168C46.4374 9.024 45.7294 8.952 45.2254 8.952C42.4414 8.952 40.3414 9.144 38.9254 9.528C38.9254 10.32 38.9494 11.604 38.9974 13.38L39.0334 15.684C40.2814 15.684 41.3974 15.636 42.3814 15.54C43.3654 15.42 43.9294 15.348 44.0734 15.324C45.3214 15.18 46.1494 15.108 46.5574 15.108C47.1334 15.108 47.6134 15.24 47.9974 15.504C48.4054 15.744 48.6094 16.128 48.6094 16.656C48.6094 17.856 47.7694 18.456 46.0894 18.456C45.6814 18.456 45.3214 18.468 45.0094 18.492C44.6974 18.516 44.4334 18.54 44.2174 18.564C43.3534 18.66 42.6694 18.708 42.1654 18.708C41.0614 18.708 40.1254 18.744 39.3574 18.816C39.3574 19.704 39.3934 20.64 39.4654 21.624C39.4654 21.936 39.4774 22.416 39.5014 23.064C39.5494 23.712 39.5734 24.3 39.5734 24.828C39.5734 25.284 39.5614 25.704 39.5374 26.088C39.5134 26.472 39.4534 26.844 39.3574 27.204ZM48.822 16.368C48.63 16.368 48.45 16.296 48.282 16.152C48.138 15.984 48.066 15.792 48.066 15.576C48.066 15.024 48.306 14.508 48.786 14.028C48.93 13.956 49.218 13.836 49.65 13.668C50.082 13.5 50.466 13.416 50.802 13.416C51.714 13.416 52.458 13.668 53.034 14.172C53.61 14.652 53.898 15.348 53.898 16.26C53.898 16.524 53.85 17.088 53.754 17.952C53.658 18.96 53.61 19.74 53.61 20.292C53.61 21.972 53.838 23.328 54.294 24.36C54.462 24.696 54.726 24.96 55.086 25.152C55.446 25.344 55.77 25.44 56.058 25.44C56.754 25.44 57.318 25.32 57.75 25.08C58.182 24.84 58.65 24.456 59.154 23.928C59.658 23.4 59.982 22.8 60.126 22.128C60.294 21.456 60.414 20.532 60.486 19.356C60.534 18.588 60.582 18.024 60.63 17.664C60.75 16.512 60.81 15.528 60.81 14.712C60.81 14.184 60.954 13.752 61.242 13.416C61.53 13.056 61.926 12.876 62.43 12.876C62.718 12.876 63.042 12.972 63.402 13.164C63.786 13.332 64.038 13.536 64.158 13.776C64.302 14.016 64.374 14.412 64.374 14.964C64.374 15.252 64.338 15.528 64.266 15.792C64.098 16.392 64.014 17.112 64.014 17.952L64.05 19.824C64.05 21.528 64.17 22.788 64.41 23.604C64.53 23.988 64.698 24.384 64.914 24.792C65.13 25.176 65.334 25.5 65.526 25.764C66.006 26.292 66.318 26.664 66.462 26.88C66.606 27.072 66.678 27.264 66.678 27.456C66.678 27.744 66.534 28.02 66.246 28.284C65.982 28.524 65.694 28.644 65.382 28.644C64.494 28.644 63.726 28.344 63.078 27.744C62.43 27.144 61.95 26.364 61.638 25.404C60.822 26.34 60.066 27.096 59.37 27.672C58.89 28.008 58.302 28.26 57.606 28.428C56.91 28.572 56.214 28.644 55.518 28.644C54.582 28.644 53.634 28.26 52.674 27.492C51.714 26.724 51.066 25.836 50.73 24.828C50.706 24.78 50.634 24.588 50.514 24.252C50.418 23.916 50.37 23.412 50.37 22.74C50.37 21.852 50.418 20.736 50.514 19.392C50.586 18.528 50.622 17.736 50.622 17.016C50.622 16.8 50.538 16.62 50.37 16.476C50.226 16.332 50.058 16.26 49.866 16.26C49.722 16.26 49.554 16.284 49.362 16.332C49.194 16.356 49.014 16.368 48.822 16.368ZM82.5805 25.728C82.7005 25.776 82.8925 25.836 83.1565 25.908C83.4205 25.98 83.6125 26.052 83.7325 26.124C83.8525 26.196 83.9125 26.304 83.9125 26.448C83.9365 27.024 83.7205 27.504 83.2645 27.888C82.8325 28.248 82.3165 28.428 81.7165 28.428C80.7805 28.428 80.0485 28.176 79.5205 27.672C78.9925 27.168 78.6085 26.4 78.3685 25.368C78.2725 24.96 78.2245 24.396 78.2245 23.676C78.2245 23.268 78.2485 22.608 78.2965 21.696C78.3445 20.736 78.3685 19.968 78.3685 19.392C78.3685 18.552 78.1285 17.82 77.6485 17.196C77.1925 16.548 76.5445 16.224 75.7045 16.224C75.2005 16.224 74.6725 16.38 74.1205 16.692C73.5685 16.98 73.1845 17.34 72.9685 17.772C72.6085 18.468 72.3565 19.224 72.2125 20.04C71.9485 21.48 71.8165 22.98 71.8165 24.54C71.8165 25.284 71.8285 25.86 71.8525 26.268C71.8525 26.364 71.8525 26.556 71.8525 26.844C71.8765 27.108 71.8525 27.36 71.7805 27.6C71.7325 27.816 71.6365 28.02 71.4925 28.212C71.3725 28.332 71.1805 28.428 70.9165 28.5C70.6765 28.596 70.4485 28.644 70.2325 28.644C69.8965 28.644 69.4765 28.5 68.9725 28.212C68.4685 27.924 68.1805 27.6 68.1085 27.24L68.0725 26.628C68.0725 26.412 68.0965 26.16 68.1445 25.872C68.4325 24.192 68.5765 22.728 68.5765 21.48C68.5765 20.928 68.5645 20.496 68.5405 20.184L68.5045 18.492C68.5045 17.916 68.3605 17.364 68.0725 16.836C67.7845 16.284 67.4485 16.008 67.0645 16.008C66.9445 16.008 66.7765 16.056 66.5605 16.152C66.3445 16.224 66.1645 16.26 66.0205 16.26C65.7805 16.26 65.5165 16.14 65.2285 15.9C64.9645 15.66 64.8325 15.408 64.8325 15.144C64.8325 14.64 65.0005 14.232 65.3365 13.92C65.6965 13.632 66.0445 13.404 66.3805 13.236C66.7405 13.068 67.1485 12.984 67.6045 12.984C67.9885 12.984 68.3005 13.02 68.5405 13.092C68.7805 13.164 69.1045 13.32 69.5125 13.56C69.7285 13.68 69.9805 13.944 70.2685 14.352C70.5565 14.76 70.7965 15.336 70.9885 16.08C71.6125 14.928 72.3805 14.124 73.2925 13.668C74.2285 13.188 75.4165 12.948 76.8565 12.948C77.4085 12.948 77.9965 13.128 78.6205 13.488C79.2685 13.848 79.8205 14.268 80.2765 14.748C80.7085 15.276 81.0685 15.936 81.3565 16.728C81.6445 17.496 81.7885 18.192 81.7885 18.816C81.7885 19.176 81.7645 19.764 81.7165 20.58C81.6445 21.228 81.6085 21.912 81.6085 22.632C81.6085 24.312 81.9325 25.344 82.5805 25.728ZM98.184 28.32C97.68 28.32 97.2 28.176 96.744 27.888C96.312 27.576 95.928 27.252 95.592 26.916C95.256 26.556 95.028 26.316 94.908 26.196C94.404 26.916 93.672 27.504 92.712 27.96C91.752 28.416 90.828 28.644 89.94 28.644C88.572 28.644 87.36 28.356 86.304 27.78C85.248 27.204 84.432 26.424 83.856 25.44C83.28 24.432 82.992 23.316 82.992 22.092C82.992 20.94 83.124 19.836 83.388 18.78C83.676 17.7 84.06 16.8 84.54 16.08C85.188 15.168 86.052 14.448 87.132 13.92C88.236 13.392 89.328 13.128 90.408 13.128C91.056 13.128 91.668 13.248 92.244 13.488C92.82 13.728 93.324 14.028 93.756 14.388C93.756 12.804 93.744 11.808 93.72 11.4V10.608C93.72 8.352 93.864 6.708 94.152 5.676C94.416 4.668 95.064 4.164 96.096 4.164C96.648 4.164 97.056 4.284 97.32 4.524C97.584 4.764 97.716 5.22 97.716 5.892C97.716 6.132 97.656 6.792 97.536 7.872C97.272 10.56 97.14 13.248 97.14 15.936C97.14 18.192 97.176 19.872 97.248 20.976C97.344 22.056 97.524 22.92 97.788 23.568C98.076 24.216 98.52 24.792 99.12 25.296C99.48 25.584 99.732 25.824 99.876 26.016C100.044 26.208 100.128 26.46 100.128 26.772C100.128 27.156 99.936 27.516 99.552 27.852C99.168 28.164 98.712 28.32 98.184 28.32ZM89.832 25.728C91.104 25.728 92.04 25.332 92.64 24.54C93.264 23.724 93.576 22.692 93.576 21.444L93.54 19.428C93.516 19.044 93.504 18.528 93.504 17.88C92.616 16.824 91.656 16.296 90.624 16.296C89.928 16.296 89.268 16.476 88.644 16.836C88.044 17.196 87.552 17.724 87.168 18.42C86.76 19.212 86.556 20.412 86.556 22.02C86.556 23.124 86.88 24.024 87.528 24.72C88.176 25.392 88.944 25.728 89.832 25.728ZM112.986 28.644C112.17 28.644 111.546 28.524 111.114 28.284C110.682 28.02 110.214 27.54 109.71 26.844C109.086 27.396 108.15 27.84 106.902 28.176C105.678 28.512 104.622 28.68 103.734 28.68C102.27 28.68 101.082 28.284 100.17 27.492C99.2816 26.676 98.8376 25.488 98.8376 23.928C98.8376 23.256 99.0176 22.644 99.3776 22.092C99.7616 21.516 100.254 21.012 100.854 20.58C101.526 20.124 102.318 19.764 103.23 19.5C104.166 19.236 105.018 19.104 105.786 19.104C107.082 19.104 108.234 19.224 109.242 19.464V19.428C109.242 18.132 108.918 17.244 108.27 16.764C107.646 16.26 106.638 16.008 105.246 16.008C104.358 16.008 103.59 16.404 102.942 17.196C102.702 17.508 102.198 17.664 101.43 17.664C101.046 17.664 100.758 17.508 100.566 17.196C100.398 16.86 100.314 16.524 100.314 16.188C100.314 15.492 100.602 14.892 101.178 14.388C101.778 13.884 102.498 13.512 103.338 13.272C104.178 13.008 104.958 12.876 105.678 12.876C106.374 12.876 107.202 13.02 108.162 13.308C109.122 13.596 109.902 13.98 110.502 14.46C111.222 15.084 111.774 15.816 112.158 16.656C112.566 17.472 112.77 18.372 112.77 19.356C112.77 19.668 112.746 20.136 112.698 20.76C112.65 21.48 112.626 22.068 112.626 22.524C112.626 22.74 112.602 23.016 112.554 23.352C112.506 23.784 112.482 24.144 112.482 24.432C112.482 24.744 112.578 25.044 112.77 25.332C112.962 25.62 113.226 25.86 113.562 26.052C113.874 26.22 114.078 26.4 114.174 26.592C114.27 26.784 114.318 27 114.318 27.24C114.318 27.48 114.162 27.78 113.85 28.14C113.562 28.476 113.274 28.644 112.986 28.644ZM105.786 21.768C104.85 21.768 104.022 21.948 103.302 22.308C102.582 22.668 102.222 23.304 102.222 24.216C102.222 24.672 102.378 25.056 102.69 25.368C103.026 25.68 103.386 25.836 103.77 25.836C104.802 25.836 105.666 25.728 106.362 25.512C107.058 25.296 107.898 24.9 108.882 24.324C109.002 23.94 109.074 23.4 109.098 22.704C109.098 22.44 109.11 22.236 109.134 22.092C107.838 21.876 106.722 21.768 105.786 21.768ZM114.504 16.116C114.504 13.956 114.468 12.24 114.396 10.968C114.348 10.248 114.3 9.708 114.252 9.348C114.132 7.476 114.072 6.312 114.072 5.856C114.072 4.752 114.624 4.2 115.728 4.2C116.424 4.2 116.892 4.38 117.132 4.74C117.396 5.1 117.576 5.688 117.672 6.504C117.912 8.16 118.032 10.104 118.032 12.336C118.032 13.344 117.996 14.352 117.924 15.36C118.356 14.688 119.04 14.136 119.976 13.704C120.936 13.272 121.812 13.056 122.604 13.056C123.684 13.056 124.584 13.284 125.304 13.74C126.048 14.172 126.78 14.808 127.5 15.648C127.908 16.248 128.268 16.968 128.58 17.808C128.916 18.624 129.084 19.332 129.084 19.932C129.084 20.964 128.916 22.056 128.58 23.208C128.268 24.336 127.848 25.212 127.32 25.836C126.648 26.652 125.88 27.264 125.016 27.672C124.176 28.08 123.168 28.284 121.992 28.284C120.168 28.284 118.728 27.54 117.672 26.052C117.552 26.652 117.288 27.252 116.88 27.852C116.472 28.428 116.004 28.716 115.476 28.716C115.044 28.716 114.684 28.608 114.396 28.392C114.108 28.152 113.964 27.804 113.964 27.348C113.964 27.18 114.012 26.76 114.108 26.088C114.348 24.648 114.468 23.292 114.468 22.02L114.504 16.116ZM121.416 25.296C121.968 25.296 122.46 25.224 122.892 25.08C123.324 24.912 123.804 24.648 124.332 24.288C124.74 24.048 125.04 23.592 125.232 22.92C125.448 22.248 125.556 21.504 125.556 20.688C125.556 19.44 125.208 18.324 124.512 17.34C124.248 17.052 123.9 16.812 123.468 16.62C123.036 16.428 122.604 16.332 122.172 16.332C121.14 16.332 120.24 16.62 119.472 17.196C118.728 17.772 118.308 18.576 118.212 19.608C118.212 19.92 118.2 20.172 118.176 20.364L118.104 23.208C118.392 23.76 118.86 24.252 119.508 24.684C120.156 25.092 120.792 25.296 121.416 25.296ZM133.42 22.92C133.42 23.832 133.552 24.54 133.816 25.044C134.104 25.524 134.464 25.764 134.896 25.764C135.136 25.764 135.364 25.752 135.58 25.728C135.796 25.68 136.012 25.656 136.228 25.656C136.468 25.656 136.672 25.776 136.84 26.016C137.032 26.256 137.128 26.52 137.128 26.808C137.128 27.384 136.852 27.84 136.3 28.176C135.772 28.488 135.052 28.644 134.14 28.644C133.492 28.644 132.832 28.452 132.16 28.068C131.512 27.66 130.972 27.036 130.54 26.196C130.108 25.332 129.892 24.264 129.892 22.992C129.892 20.256 129.94 17.94 130.036 16.044C130.156 13.788 130.216 10.944 130.216 7.512C130.216 6.432 130.276 5.676 130.396 5.244C130.54 4.908 130.768 4.656 131.08 4.488C131.416 4.296 131.764 4.2 132.124 4.2C132.484 4.2 132.796 4.26 133.06 4.38C133.348 4.5 133.54 4.692 133.636 4.956C133.732 5.244 133.792 5.532 133.816 5.82C133.864 6.084 133.888 6.468 133.888 6.972C133.888 7.956 133.852 8.904 133.78 9.816C133.732 10.92 133.708 11.724 133.708 12.228C133.516 16.452 133.42 20.016 133.42 22.92ZM136.055 20.364C136.055 19.5 136.211 18.696 136.523 17.952C136.835 17.184 137.291 16.392 137.891 15.576C138.491 14.76 139.319 14.124 140.375 13.668C141.431 13.188 142.583 12.948 143.831 12.948C144.791 12.948 145.715 13.152 146.603 13.56C147.515 13.944 148.331 14.424 149.051 15C149.147 15.168 149.315 15.48 149.555 15.936C149.795 16.368 149.963 16.764 150.059 17.124C150.179 17.484 150.239 17.856 150.239 18.24C150.239 19.848 149.651 20.928 148.475 21.48C147.299 22.008 145.811 22.272 144.011 22.272C142.211 22.272 140.747 22.152 139.619 21.912C139.667 22.368 139.787 22.824 139.979 23.28C140.171 23.736 140.399 24.084 140.663 24.324C141.143 24.78 141.611 25.08 142.067 25.224C142.547 25.344 143.183 25.404 143.975 25.404C145.175 25.404 146.111 25.176 146.783 24.72C147.407 24.312 147.887 24.108 148.223 24.108C148.679 24.108 149.027 24.252 149.267 24.54C149.507 24.804 149.627 25.152 149.627 25.584C149.627 26.496 149.039 27.24 147.863 27.816C146.711 28.392 145.403 28.68 143.939 28.68C142.787 28.68 141.647 28.476 140.519 28.068C139.391 27.66 138.491 27.084 137.819 26.34C137.363 25.572 136.955 24.636 136.595 23.532C136.235 22.428 136.055 21.372 136.055 20.364ZM143.975 15.9C143.447 15.9 142.895 15.996 142.319 16.188C141.767 16.356 141.335 16.62 141.023 16.98C140.639 17.388 140.351 17.76 140.159 18.096C139.991 18.432 139.883 18.852 139.835 19.356C140.099 19.356 140.351 19.368 140.591 19.392C140.831 19.416 141.059 19.44 141.275 19.464C142.331 19.56 143.123 19.608 143.651 19.608C144.707 19.608 145.511 19.452 146.063 19.14C146.639 18.828 146.927 18.408 146.927 17.88C146.927 17.376 146.603 16.92 145.955 16.512C145.331 16.104 144.671 15.9 143.975 15.9Z" fill="#8256FF"/>
</svg>
